<svg xmlns="http://www.w3.org/2000/svg" aria-hidden="true" style="position:absolute;width:0;height:0;overflow:hidden"><defs><symbol id="icon-facebook" viewBox="0 0 32 32"><path d="M19 6h5V0h-5c-3.86 0-7 3.14-7 7v3H8v6h4v16h6V16h5l1-6h-6V7c0-.542.458-1 1-1z"/></symbol><symbol id="icon-instagram" viewBox="0 0 32 32"><path d="M16 2.881c4.275 0 4.781.019 6.462.094 1.563.069 2.406.331 2.969.55.744.288 1.281.638 1.837 1.194.563.563.906 1.094 1.2 1.838.219.563.481 1.412.55 2.969.075 1.688.094 2.194.094 6.463s-.019 4.781-.094 6.463c-.069 1.563-.331 2.406-.55 2.969-.288.744-.637 1.281-1.194 1.837-.563.563-1.094.906-1.837 1.2-.563.219-1.413.481-2.969.55-1.688.075-2.194.094-6.463.094s-4.781-.019-6.463-.094c-1.563-.069-2.406-.331-2.969-.55-.744-.288-1.281-.637-1.838-1.194-.563-.563-.906-1.094-1.2-1.837-.219-.563-.481-1.413-.55-2.969-.075-1.688-.094-2.194-.094-6.463s.019-4.781.094-6.463c.069-1.563.331-2.406.55-2.969.288-.744.638-1.281 1.194-1.838.563-.563 1.094-.906 1.838-1.2.563-.219 1.412-.481 2.969-.55 1.681-.075 2.188-.094 6.463-.094zM16 0c-4.344 0-4.887.019-6.594.094-1.7.075-2.869.35-3.881.744-1.056.412-1.95.956-2.837 1.85-.894.888-1.438 1.781-1.85 2.831C.444 6.538.169 7.7.094 9.4.019 11.113 0 11.656 0 16s.019 4.887.094 6.594c.075 1.7.35 2.869.744 3.881.413 1.056.956 1.95 1.85 2.837.887.887 1.781 1.438 2.831 1.844 1.019.394 2.181.669 3.881.744 1.706.075 2.25.094 6.594.094s4.888-.019 6.594-.094c1.7-.075 2.869-.35 3.881-.744 1.05-.406 1.944-.956 2.831-1.844s1.438-1.781 1.844-2.831c.394-1.019.669-2.181.744-3.881.075-1.706.094-2.25.094-6.594s-.019-4.887-.094-6.594c-.075-1.7-.35-2.869-.744-3.881-.394-1.063-.938-1.956-1.831-2.844-.887-.887-1.781-1.438-2.831-1.844-1.019-.394-2.181-.669-3.881-.744-1.712-.081-2.256-.1-6.6-.1z"/><path d="M16 7.781c-4.537 0-8.219 3.681-8.219 8.219s3.681 8.219 8.219 8.219 8.219-3.681 8.219-8.219c0-4.537-3.681-8.219-8.219-8.219zm0 13.55c-2.944 0-5.331-2.387-5.331-5.331s2.387-5.331 5.331-5.331c2.944 0 5.331 2.387 5.331 5.331S18.944 21.331 16 21.331zM26.462 7.456c0 1.06-.859 1.919-1.919 1.919s-1.919-.859-1.919-1.919.859-1.919 1.919-1.919 1.919.859 1.919 1.919z"/></symbol><symbol id="icon-twitter" viewBox="0 0 32 32"><path d="M32 7.075c-1.175.525-2.444.875-3.769 1.031 1.356-.813 2.394-2.1 2.887-3.631-1.269.75-2.675 1.3-4.169 1.594C25.749 4.794 24.043 4 22.155 4c-3.625 0-6.563 2.938-6.563 6.563 0 .512.056 1.012.169 1.494-5.456-.275-10.294-2.888-13.531-6.862-.563.969-.887 2.1-.887 3.3 0 2.275 1.156 4.287 2.919 5.463-1.075-.031-2.087-.331-2.975-.819v.081c0 3.181 2.263 5.838 5.269 6.437-.55.15-1.131.231-1.731.231-.425 0-.831-.044-1.237-.119.838 2.606 3.263 4.506 6.131 4.563-2.25 1.762-5.075 2.813-8.156 2.813-.531 0-1.05-.031-1.569-.094 2.913 1.869 6.362 2.95 10.069 2.95 12.075 0 18.681-10.006 18.681-18.681 0-.287-.006-.569-.019-.85 1.281-.919 2.394-2.075 3.275-3.394z"/></symbol><symbol id="icon-linkedin" viewBox="0 0 32 32"><path d="M12 12h5.535v2.837h.079c.77-1.381 2.655-2.837 5.464-2.837C28.92 12 30 15.637 30 20.367V30h-5.769v-8.54c0-2.037-.042-4.657-3.001-4.657-3.005 0-3.463 2.218-3.463 4.509V30H12V12zM2 12h6v18H2V12zM8 7c0 1.657-1.343 3-3 3S2 8.657 2 7s1.343-3 3-3 3 1.343 3 3z"/></symbol></defs></svg>